<svg width="76" height="23" viewBox="0 0 76 23" fill="none" xmlns="http://www.w3.org/2000/svg">
<path d="M6.39867 22.6896H0V0H14.212V4.9197H6.39867V9.24966H13.6033V14.1694H6.39867V22.6896Z" fill="#F6F8FF"/>
<path d="M37.6902 0V13.6572C37.6902 15.561 37.3064 17.2164 36.5388 18.6235C35.7712 20.0202 34.6197 21.1014 33.0845 21.8671C31.5492 22.6224 29.6247 23 27.3109 23C23.9991 23 21.4715 22.1982 19.7279 20.5945C17.9843 18.9908 17.1125 16.7249 17.1125 13.7969V0H23.6427V13.3158C23.6427 14.9195 23.9608 16.0834 24.5968 16.8077C25.2328 17.5319 26.1704 17.8941 27.4096 17.8941C28.2978 17.8941 29.0216 17.7389 29.5808 17.4285C30.1401 17.1077 30.5458 16.6059 30.7981 15.9231C31.0612 15.2402 31.1928 14.3608 31.1928 13.2848V0H37.6902Z" fill="#F6F8FF"/>
<path d="M60.2418 22.6896V0H66.7392V17.7389H76V22.6896H60.2418Z" fill="#F6F8FF"/>
<rect x="41.2051" width="15.5663" height="4.86538" fill="#F6F8FF"/>
<rect x="43.0371" y="8.8457" width="11.9036" height="4.86538" fill="#F6F8FF"/>
<rect x="41.2051" y="17.6924" width="15.5663" height="4.86538" fill="#F6F8FF"/>
</svg>
