<?xml version="1.0" standalone="no"?>
<!DOCTYPE svg PUBLIC "-//W3C//DTD SVG 20010904//EN"
 "http://www.w3.org/TR/2001/REC-SVG-20010904/DTD/svg10.dtd">
<svg version="1.0" xmlns="http://www.w3.org/2000/svg"
 width="352.000000pt" height="304.000000pt" viewBox="0 0 352.000000 304.000000"
 preserveAspectRatio="xMidYMid meet">
<metadata>
Created by potrace 1.16, written by Peter Selinger 2001-2019
</metadata>
<g transform="translate(0.000000,304.000000) scale(0.100000,-0.100000)"
fill="#000000" stroke="none">
<path d="M0 2675 l0 -365 110 1 110 1 0 254 0 254 255 0 255 0 0 110 0 110
-365 0 -365 0 0 -365z"/>
<path d="M2790 2930 l0 -110 255 0 255 0 2 -252 3 -253 108 -3 107 -4 0 366 0
366 -365 0 -365 0 0 -110z"/>
<path d="M850 2354 c-105 -37 -155 -107 -148 -210 7 -111 68 -172 234 -235 98
-37 129 -64 115 -100 -15 -42 -36 -52 -94 -47 -51 4 -61 9 -163 83 -10 7 -28
-4 -69 -45 -30 -30 -55 -61 -55 -68 0 -23 67 -80 134 -114 121 -62 290 -46
383 36 76 65 100 191 53 274 -31 55 -78 86 -201 133 -112 42 -141 62 -137 93
8 53 99 57 171 7 25 -17 50 -31 55 -31 5 0 33 25 61 55 50 52 52 57 39 78 -18
27 -110 84 -158 97 -52 15 -169 11 -220 -6z"/>
<path d="M1651 2354 c-123 -33 -209 -105 -264 -222 -29 -60 -32 -76 -32 -162
0 -86 3 -101 31 -160 59 -123 152 -198 278 -224 184 -39 364 51 444 222 24 50
27 69 27 162 0 93 -3 112 -27 162 -53 114 -163 201 -286 227 -68 14 -104 13
-171 -5z m195 -209 c84 -49 118 -174 72 -265 -35 -67 -86 -103 -156 -108 -99
-6 -176 50 -203 150 -22 85 30 201 105 234 52 22 133 18 182 -11z"/>
<path d="M2157 2354 c-8 -8 15 -52 137 -264 l101 -175 5 -160 5 -160 98 -3 97
-3 0 152 0 152 126 224 c69 122 123 227 120 231 -7 12 -195 15 -210 3 -6 -5
-39 -68 -71 -140 -33 -72 -63 -127 -66 -123 -4 4 -30 59 -59 122 -30 63 -62
123 -73 133 -15 13 -38 17 -111 17 -51 0 -95 -3 -99 -6z"/>
<path d="M675 1358 c-3 -11 -13 -101 -30 -263 -2 -22 -9 -86 -15 -143 -6 -56
-8 -107 -5 -113 7 -10 107 -10 123 0 6 3 13 33 16 66 24 222 22 220 66 74 20
-69 40 -131 44 -138 9 -15 104 -12 114 3 3 6 23 67 43 136 21 69 40 118 43
110 3 -8 10 -67 17 -130 6 -63 16 -118 23 -123 6 -4 36 -6 66 -5 l55 3 -1 50
c-2 66 -44 468 -50 477 -9 13 -141 9 -151 -4 -6 -7 -30 -79 -54 -160 -24 -81
-46 -148 -49 -148 -3 0 -25 67 -49 150 -24 82 -49 154 -54 159 -16 16 -147 14
-152 -1z"/>
<path d="M1337 1363 c-4 -3 -7 -122 -7 -264 l0 -257 26 -6 c30 -8 341 -7 361
1 9 3 13 24 13 64 l0 59 -125 0 -125 0 -1 28 c-1 15 -2 34 -3 42 -1 12 18 16
94 20 l95 5 0 50 0 50 -92 3 c-98 3 -105 7 -96 55 l5 27 108 0 c122 0 141 9
139 63 -3 71 9 67 -198 67 -103 0 -191 -3 -194 -7z"/>
<path d="M1820 1106 c0 -292 -4 -276 66 -276 73 0 76 5 73 161 -1 80 2 138 7
137 5 -2 47 -66 93 -143 47 -77 89 -143 95 -148 6 -4 38 -6 71 -5 l60 3 3 268
2 268 -67 -3 -68 -3 -5 -139 -5 -139 -88 142 -88 141 -75 0 -74 0 0 -264z"/>
<path d="M2404 1356 c-3 -9 -4 -95 -2 -193 3 -160 5 -183 25 -224 38 -76 101
-109 210 -109 102 0 168 37 204 115 16 34 19 67 19 233 l0 193 -67 -3 -68 -3
-5 -181 c-4 -158 -7 -185 -23 -202 -38 -42 -111 -35 -136 11 -7 13 -12 91 -14
197 l-2 175 -68 3 c-53 2 -69 0 -73 -12z"/>
<path d="M0 365 l0 -365 365 0 365 0 0 110 0 110 -255 0 -255 0 0 254 0 254
-110 1 -110 1 0 -365z"/>
<path d="M3300 475 l0 -255 -255 0 -255 0 0 -110 0 -110 365 0 365 0 0 365 0
365 -110 0 -110 0 0 -255z"/>
</g>
</svg>
